# Blender v3.1.2 OBJ File: 'trap.blend'
# www.blender.org
mtllib trap.mtl
o Cube
v -10.000000 -7.638113 10.000000
v -10.000000 -7.638113 -10.000000
v 10.000000 -7.638113 10.000000
v 10.000000 -7.638113 -10.000000
v -10.000000 8.363937 10.000000
v 10.000000 8.363937 -10.000000
v -10.000000 8.363937 -10.000000
v 10.000000 8.363937 10.000000
vt 0.375000 0.500000
vt 0.125000 0.750000
vt 0.125000 0.500000
vt 0.500000 0.250000
vt 0.375000 0.250000
vt 0.500000 0.500000
vt 0.375000 0.750000
vt 0.500000 0.000000
vt 0.375000 0.000000
vt 0.500000 0.750000
vt 0.375000 1.000000
vt 0.500000 1.000000
vn 0.0000 -1.0000 0.0000
vn 0.0000 0.0000 1.0000
vn -1.0000 0.0000 0.0000
vn 1.0000 0.0000 0.0000
vn 0.0000 0.0000 -1.0000
usemtl Material
s off
f 1/1/1 4/2/1 3/3/1
f 8/4/2 1/1/2 3/5/2
f 5/6/3 2/7/3 1/1/3
f 6/8/4 3/5/4 4/9/4
f 7/10/5 4/11/5 2/7/5
f 1/1/1 2/7/1 4/2/1
f 8/4/2 5/6/2 1/1/2
f 5/6/3 7/10/3 2/7/3
f 6/8/4 8/4/4 3/5/4
f 7/10/5 6/12/5 4/11/5
